HIERARCHY
ROOT Hips
{
  OFFSET 135.063 87.1344 73.9012
  CHANNELS 6 Xposition Yposition Zposition Zrotation Xrotation Yrotation
  JOINT RightUpLeg
  {
    OFFSET -8.9458 -8.66707 0.101652
    CHANNELS 3 Zrotation Xrotation Yrotation
    JOINT RightLeg
    {
      OFFSET 0 -44.4227 1.3727
      CHANNELS 3 Zrotation Xrotation Yrotation
      JOINT RightFoot
      {
        OFFSET 0.253549 -42.0924 -1.46059
        CHANNELS 3 Zrotation Xrotation Yrotation
        JOINT RightToes
        {
          OFFSET 0.04 -4.41509 8.4991
          CHANNELS 3 Zrotation Xrotation Yrotation
          End Site
          {
            OFFSET -0.08 -0.137448 9.77979
          }
        }
      }
    }
  }
  JOINT Spine
  {
    OFFSET 0 11.8905 0
    CHANNELS 3 Zrotation Xrotation Yrotation
    JOINT Spine1
    {
      OFFSET 0 25.6574 0.127663
      CHANNELS 3 Zrotation Xrotation Yrotation
      JOINT HEad
      {
        OFFSET 0 8.73416 0.011341
        CHANNELS 3 Zrotation Xrotation Yrotation
        End Site
        {
          OFFSET -0.29 12.7742 2.51395
        }
      }
      JOINT LeftShoulder1
      {
        OFFSET 8.99 -0.362252 -0.22
        CHANNELS 3 Zrotation Xrotation Yrotation
        JOINT LeftArm
        {
          OFFSET 10.2827 -0.00338 0.322123
          CHANNELS 3 Zrotation Xrotation Yrotation
          JOINT LeftForeArm
          {
            OFFSET 32.7669 0.099144 -1.42434
            CHANNELS 3 Zrotation Xrotation Yrotation
            JOINT LeftHand
            {
              OFFSET 27.5643 0.085362 1.02216
              CHANNELS 3 Zrotation Xrotation Yrotation
              End Site
              {
                OFFSET 16.7443 -0.6 1.50291
              }
            }
          }
        }
      }
      JOINT RightShoulder
      {
        OFFSET -8.99 -0.362252 -0.22
        CHANNELS 3 Zrotation Xrotation Yrotation
        JOINT RightArm
        {
          OFFSET -10.2827 -0.00338 0.322123
          CHANNELS 3 Zrotation Xrotation Yrotation
          JOINT RightForeArm
          {
            OFFSET -32.8971 0.099144 -1.42434
            CHANNELS 3 Zrotation Xrotation Yrotation
            JOINT RightHand
            {
              OFFSET -27.4921 0.085362 1.02216
              CHANNELS 3 Zrotation Xrotation Yrotation
              End Site
              {
                OFFSET -16.6312 -0.6 1.50291
              }
            }
          }
        }
      }
    }
  }
  JOINT LeftUpLeg
  {
    OFFSET 8.9458 -8.66707 0.101652
    CHANNELS 3 Zrotation Xrotation Yrotation
    JOINT LeftLeg
    {
      OFFSET 0 -44.4227 1.3727
      CHANNELS 3 Zrotation Xrotation Yrotation
      JOINT LeftFoot
      {
        OFFSET -0.253549 -42.0924 -1.46059
        CHANNELS 3 Zrotation Xrotation Yrotation
        JOINT LeftToes
        {
          OFFSET -0.04 -4.41509 8.4991
          CHANNELS 3 Zrotation Xrotation Yrotation
          End Site
          {
            OFFSET 0.08 -0.047448 9.77979
          }
        }
      }
    }
  }
}
MOTION
Frames:	9
Frame Time:	0.0166667
38.7827	82.2994	-239.196	-18.5125	-11.9387	144.983	-4.99914	-61.8047	3.59444	109.936	74.9067	-113.706	13.7468	-6.84828	-20.25	0.0462048	0.000533964	0.662642	-0.623666	-0.346439	-0.546245	-1.25064	-0.684115	-1.09646	-1.37201	7.20352	5.92989	-2.39E-15	4.77E-15	3.18E-15	-56.9202	14.2775	0.265455	-4.80059	-6.5937	-14.086	-3.99208	3.49808	4.84877	-2.39E-15	4.77E-15	3.18E-15	74.7142	32.6903	-21.8047	14.13	-15.0949	46.0974	-9.44742	2.60845	-4.87919	34.5913	-80.7974	37.0766	0.917867	66.6555	-4.37356	-17.9978	-6.59297	-27.684	1.35E-14	2.86E-14	6.36E-15
39.5635	82.3115	-240.721	-19.7135	-11.1373	144.259	-6.9848	-60.8731	3.29251	111.118	74.6911	-115.023	14.1224	-6.815	-20.3331	0.0462048	0.000533964	0.662642	-0.988868	-0.55914	-0.516734	-1.98288	-1.10647	-1.04328	-1.56521	6.24981	5.88138	7.95E-16	-4.77E-15	-3.18E-15	-56.9472	12.7926	0.117412	-5.1763	-3.43991	-11.8929	-4.73632	3.53479	4.76774	7.95E-16	-4.77E-15	-3.18E-15	73.499	31.9966	-20.2703	12.2437	-12.3467	50.4608	-9.55154	2.4417	-4.12134	26.5399	-79.5053	33.3716	6.11565	66.7531	-11.1784	-16.2885	-6.59715	-25.6386	1.43E-14	3.02E-14	3.18E-15
40.1313	82.3276	-242.037	-19.6988	-9.95987	143.83	-7.98173	-59.1093	3.17997	112.419	74.6265	-116.3	14.5372	-6.40915	-20.4659	0.0462048	0.000533964	0.662642	-1.15834	-0.517929	-0.422328	-2.32061	-1.02442	-0.85525	-1.73088	5.70394	5.70272	-4.41E-31	-7.95E-15	-3.18E-15	-56.8695	11.953	-0.209465	-5.61966	-0.6253	-9.5225	-5.21214	3.6858	4.77095	-4.41E-31	-7.95E-15	-3.18E-15	72.5288	31.6685	-19.2125	10.8608	-10.5991	55.0089	-9.51917	2.24793	-2.91856	18.4033	-77.5538	27.0546	9.09876	67.2945	-15.3167	-15.2529	-6.52108	-24.674	1.51E-14	3.26E-14	0.00E+00
40.5925	82.3373	-243.239	-19.4342	-8.85012	143.424	-8.71251	-57.3556	3.14385	113.434	74.5661	-117.258	14.8661	-5.86167	-20.6205	0.0462048	0.000533964	0.662642	-1.33216	-0.492572	-0.416209	-2.66802	-0.972536	-0.843949	-1.62769	5.38847	5.73004	-2.39E-15	-1.59E-15	3.18E-15	-56.8832	11.5989	-0.488077	-5.80631	1.35736	-7.10314	-5.77031	4.12223	4.84467	-2.39E-15	-1.59E-15	3.18E-15	71.8807	31.7775	-18.2126	9.47008	-9.3772	59.2803	-8.99735	1.9965	-1.5991	12.3264	-75.2427	22.5889	13.0422	67.0273	-18.8914	-15.3156	-5.90589	-25.4145	1.43E-14	2.86E-14	1.27E-14
41.1116	82.1255	-244.304	-19.2822	-8.84223	142.796	-8.81937	-56.7241	3.2155	114.414	74.3668	-117.755	15.0838	-5.49862	-20.7036	0.0462048	0.000533964	0.662642	-1.34187	-0.704022	-0.353868	-2.68837	-1.39676	-0.724353	-1.37146	5.00862	5.59083	2.39E-15	4.77E-15	0.00E+00	-57.1241	11.5804	-1.29637	-5.65403	2.58905	-4.64188	-6.66776	4.7272	5.03082	2.39E-15	4.77E-15	0.00E+00	71.1062	31.5852	-17.0215	7.97618	-8.28817	63.2807	-7.93554	1.88658	-0.480839	11.646	-73.9825	22.4303	14.9954	67.4595	-21.0269	-15.3296	-6.74244	-25.8527	1.59E-14	3.26E-14	0.00E+00
41.8117	82.0879	-245.871	-18.2748	-8.8765	140.922	-6.46833	-56.2149	6.14506	114.254	73.7685	-117.455	15.7786	-3.75293	-20.5884	0.0462048	0.000533964	0.662642	-1.1179	-0.806223	0.163546	-2.23384	-1.6127	0.311213	-1.00807	5.01016	5.43923	-3.18E-15	2.39E-15	1.27E-14	-57.3102	11.7279	-2.40102	-5.51189	3.52249	-2.30898	-8.09522	5.17931	5.49587	-3.18E-15	2.39E-15	1.27E-14	70.4856	31.1693	-16.2243	6.20022	-7.09284	67.1885	-6.8619	2.09928	0.117138	17.5855	-71.8353	27.8373	14.3567	68.1144	-20.4108	-14.7073	-7.80186	-26.4757	1.43E-14	3.10E-14	0.00E+00
42.6164	82.3601	-247.266	-17.9017	-8.34541	141.021	-8.1909	-56.2934	6.11305	114.426	71.9662	-117.752	16.3467	-2.47115	-20.0071	0.0462048	0.000533964	0.662642	-1.19865	-0.92682	-0.016162	-2.39805	-1.85032	-0.0518797	-0.626986	5.3733	5.31874	8.83E-32	-7.95E-16	6.36E-15	-57.1088	11.9011	-3.56019	-5.74211	4.57718	-0.581888	-9.9068	5.38732	6.27832	8.83E-32	-7.95E-16	6.36E-15	70.107	30.4902	-16.0449	4.153	-5.77894	70.9798	-6.19993	2.48442	0.727235	15.7002	-69.9232	25.8418	13.1619	68.6211	-19.2665	-14.5363	-8.33755	-27.8021	1.27E-14	3.18E-14	6.36E-15
43.6049	82.8871	-249.152	-17.4433	-7.90758	141.046	-9.87096	-57.0343	7.00088	113.706	68.9323	-117.355	16.7098	-0.542448	-19.6242	0.0462048	0.000533964	0.662642	-1.25001	-1.01183	-0.140349	-2.50309	-2.01756	-0.302967	-0.269333	5.62431	5.11877	7.95E-16	-3.98E-15	-3.18E-15	-56.5359	12.0074	-4.78484	-6.15691	5.71317	0.101067	-11.6661	5.71277	6.92749	7.95E-16	-3.98E-15	-3.18E-15	69.6411	29.4979	-16.1074	2.47608	-4.6965	74.6653	-5.94328	3.19995	1.78519	13.642	-67.902	23.6005	13.1047	68.7471	-19.3094	-14.5609	-9.09128	-28.497	1.27E-14	3.26E-14	9.54E-15
44.6446	83.613	-251.117	-16.9349	-8.00827	140.924	-11.2759	-58.6867	7.66423	113.365	66.0081	-118.022	17.031	2.19126	-19.2151	0.0462048	0.000533964	0.662642	-1.19856	-1.19331	-0.28103	-2.40375	-2.37768	-0.587316	0.0855383	5.72659	5.11408	-7.95E-16	-3.18E-15	0.00E+00	-55.8004	11.7732	-5.68536	-6.42837	6.80057	-0.340221	-12.9006	6.29547	6.9366	-7.95E-16	-3.18E-15	0.00E+00	69.1216	28.5747	-16.1584	1.33773	-4.00523	78.0375	-6.08061	4.1807	3.14285	11.9007	-66.0553	21.9595	14.8962	68.6874	-21.4173	-14.4194	-10.0759	-28.8888	1.43E-14	3.34E-14	9.54E-15
